<?xml version="1.0" encoding="UTF-8" standalone="no"?>
<svg width="36px" height="36px" viewBox="0 0 36 36" version="1.1" xmlns="http://www.w3.org/2000/svg" xmlns:xlink="http://www.w3.org/1999/xlink">
    <!-- Generator: Sketch 3.8.3 (29802) - http://www.bohemiancoding.com/sketch -->
    <title>dribbble</title>
    <desc>Created with Sketch.</desc>
    <defs></defs>
    <g id="Page-1" stroke="none" stroke-width="1" fill="none" fill-rule="evenodd">
        <g id="Desktop" transform="translate(-480.000000, -654.000000)" fill="#1D1D1B">
            <g id="dribbble" transform="translate(480.000000, 654.000000)">
                <path d="M18,0 C8.0746875,0 0,8.0746875 0,18 C0,27.9253125 8.0746875,36 18,36 C27.9253125,36 36,27.9253125 36,18 C36,8.0746875 27.9253125,0 18,0 L18,0 Z M33.75,18.00225 C29.379375,16.8631875 25.5650625,16.8170625 22.273875,17.442 C21.7929375,16.3344375 21.2985,15.2656875 20.7973125,14.247 C24.251625,12.8581875 27.523125,10.8135 30.0436875,7.869375 C32.35275,10.6104375 33.75,14.1440625 33.75,18 L33.75,18.00225 L33.75,18.00225 Z M28.4754375,6.27075 C26.1680625,9.025875 23.05575,10.913625 19.7566875,12.2045625 C17.442,7.817625 15.181875,4.5174375 13.930875,2.802375 C15.231375,2.4530625 16.5915,2.25 18,2.25 C22.024125,2.25 25.68825,3.7794375 28.4754375,6.27075 L28.4754375,6.27075 Z M11.6983125,3.5758125 C12.713625,4.9415625 15.102,8.3120625 17.58375,12.96675 C11.43675,14.8815 5.1440625,14.983875 2.5565625,14.925375 C3.569625,9.8285625 7.0509375,5.61375 11.6983125,3.5758125 L11.6983125,3.5758125 Z M2.25,18 C2.25,17.722125 2.2786875,17.4515625 2.291625,17.1770625 C2.712375,17.191125 3.232125,17.202375 3.843,17.202375 C7.13025,17.202375 12.9375,16.8795 18.6406875,15.0238125 C19.1109375,15.9721875 19.5766875,16.961625 20.032875,17.989875 C12.4700625,20.2651875 8.091,26.01 6.4265625,28.6441875 C3.843,25.837875 2.25,22.1056875 2.25,18 L2.25,18 Z M8.0769375,30.2158125 C9.3076875,28.074375 13.3239375,22.125375 20.894625,20.01825 C22.4229375,23.778 23.7335625,27.9568125 24.46425,32.347125 C22.48875,33.240375 20.305125,33.75 18,33.75 C14.24025,33.75 10.78875,32.4219375 8.0769375,30.2158125 L8.0769375,30.2158125 Z M26.5550625,31.2058125 C25.8001875,27.0444375 24.57,23.1024375 23.148,19.5328125 C26.1343125,19.0591875 29.5948125,19.1930625 33.5655,20.2831875 C32.89725,24.8535 30.2715,28.789875 26.5550625,31.2058125 L26.5550625,31.2058125 Z" id="Shape"></path>
            </g>
        </g>
    </g>
</svg>