<?xml version="1.0" encoding="UTF-8" standalone="no"?>
<svg width="36px" height="24px" viewBox="0 0 36 24" version="1.1" xmlns="http://www.w3.org/2000/svg" xmlns:xlink="http://www.w3.org/1999/xlink">
    <!-- Generator: Sketch 3.8.3 (29802) - http://www.bohemiancoding.com/sketch -->
    <title>e-mail-envelope</title>
    <desc>Created with Sketch.</desc>
    <defs></defs>
    <g id="Page-1" stroke="none" stroke-width="1" fill="none" fill-rule="evenodd">
        <g id="Desktop" transform="translate(-646.000000, -660.000000)" fill="#010002">
            <g id="e-mail-envelope" transform="translate(646.000000, 660.000000)">
                <g id="Capa_1">
                    <path d="M0,0.061037037 L0,23.8953333 L35.9563704,23.8953333 L35.9563704,0.061037037 L0,0.061037037 L0,0.061037037 Z M17.9783704,14.7797037 L3.23051852,1.82896296 L32.7258519,1.82896296 L17.9783704,14.7797037 L17.9783704,14.7797037 Z M12.1034815,11.974 L1.76792593,21.0502222 L1.76792593,2.8977037 L12.1034815,11.974 L12.1034815,11.974 Z M13.4431111,13.1505926 L17.9779259,17.132963 L22.5127407,13.1505926 L32.7351111,22.1274074 L3.22125926,22.1274074 L13.4431111,13.1505926 L13.4431111,13.1505926 Z M23.8524444,11.9744444 L34.1883704,2.8977037 L34.1883704,21.0502222 L23.8524444,11.9744444 L23.8524444,11.9744444 Z" id="Shape"></path>
                </g>
            </g>
        </g>
    </g>
</svg>