<?xml version="1.0" encoding="UTF-8" standalone="no"?>
<svg width="36px" height="31px" viewBox="0 0 36 31" version="1.1" xmlns="http://www.w3.org/2000/svg" xmlns:xlink="http://www.w3.org/1999/xlink">
    <!-- Generator: Sketch 3.8.3 (29802) - http://www.bohemiancoding.com/sketch -->
    <title>github-character</title>
    <desc>Created with Sketch.</desc>
    <defs></defs>
    <g id="Page-1" stroke="none" stroke-width="1" fill="none" fill-rule="evenodd">
        <g id="Desktop" transform="translate(-563.000000, -656.000000)" fill="#000000">
            <g id="github-character" transform="translate(563.000000, 656.000000)">
                <g id="Capa_1">
                    <g id="Group">
                        <path d="M32.9932437,8.30345551 C33.3819832,7.14721553 33.5765798,5.94861556 33.5765798,4.70720578 C33.5765798,3.0517928 33.2090924,1.49624442 32.4751008,0.0407105636 C30.9351176,0.0407105636 29.5747563,0.319236795 28.3940168,0.875614498 C27.2138824,1.43214215 25.8679664,2.29546101 24.3569496,3.46557107 C22.4569664,3.00898298 20.441042,2.78068894 18.3109916,2.78068894 C15.9787815,2.78068894 13.7546471,3.03057533 11.6386639,3.52997324 C10.0985294,2.33114835 8.73816807,1.45021074 7.55773109,0.88641067 C6.37729412,0.322610599 5.00982353,0.040785537 3.45501681,0.040785537 C2.72087395,1.49631939 2.35384034,3.05194275 2.35384034,4.70728075 C2.35384034,5.9631604 2.54805882,7.17615526 2.93679832,8.34611538 C0.978806723,10.6152607 0,13.4406338 0,16.8227595 C0,19.7913318 0.446067227,22.1527694 1.33873109,23.9082719 C1.81391597,24.8354681 2.43272269,25.6560521 3.1957563,26.369799 C3.95848739,27.0830961 4.82944538,27.661441 5.80840336,28.1039341 C6.78751261,28.5459773 7.77335294,28.9137219 8.7667563,29.2059683 C9.76008403,29.4983646 10.8576303,29.7126386 12.0596975,29.8476657 C13.2616891,29.9838174 14.3233109,30.0728859 15.244563,30.1159956 C16.1658151,30.1582806 17.1877311,30.1799479 18.310916,30.1799479 C19.6350504,30.1799479 20.8366639,30.1475594 21.9168151,30.083757 C22.9965882,30.0196547 24.2306471,29.8623605 25.6199748,29.6132239 C27.0090756,29.3633375 28.2327731,29.0241577 29.2910672,28.5962095 C30.3491345,28.1682613 31.3642437,27.5544539 32.3358655,26.7555372 C33.3074874,25.9560957 34.0665882,25.0073072 34.6139244,23.9083469 C35.4915378,22.1387494 35.9307983,19.776787 35.9307983,16.8228345 C35.9302689,13.4263889 34.9513866,10.5866959 32.9932437,8.30345551 L32.9932437,8.30345551 Z M30.4029832,23.8756585 C29.9422437,24.8106519 29.3591345,25.5449415 28.6538824,26.0806266 C27.9483277,26.6158618 27.0703361,27.04381 26.019605,27.365296 C24.9683445,27.6862572 23.9611765,27.8966326 22.9965882,27.9961973 C22.0316975,28.0962118 20.9596387,28.1459942 19.7788992,28.1459942 L16.1512185,28.1459942 C14.9708571,28.1459942 13.8981933,28.0962118 12.9338319,27.9961973 C11.969395,27.8966326 10.9617731,27.6862572 9.91081513,27.365296 C8.86023529,27.04381 7.9822437,26.6158618 7.27668908,26.0806266 C6.57113445,25.5448665 5.98817647,24.8106519 5.52751261,23.8756585 C5.06692437,22.940665 4.83655462,21.8456783 4.83655462,20.5900236 C4.83655462,18.877106 5.33321849,17.4213472 6.32662185,16.2231971 C7.31994958,15.0243722 8.66578992,14.4251847 10.3642941,14.4251847 C10.9835546,14.4251847 12.3871008,14.5749066 14.5751597,14.8746503 C15.5971513,15.0315697 16.7272941,15.1100668 17.9651345,15.1100668 C19.2033529,15.1100668 20.3333445,15.0317946 21.3551849,14.8746503 C23.572437,14.5748316 24.9755294,14.4251847 25.5661261,14.4251847 C27.2645546,14.4251847 28.610395,15.0246721 29.6037227,16.2231971 C30.5971261,17.421872 31.0934874,18.877106 31.0934874,20.5900236 C31.0934874,21.8459032 30.8631176,22.9414897 30.4029832,23.8756585 L30.4029832,23.8756585 Z" id="Shape"></path>
                        <path d="M12.6207983,17.2078979 C12.1816891,16.7224451 11.6600672,16.4797561 11.0553277,16.4797561 C10.450437,16.4797561 9.9287395,16.7227449 9.48970588,17.2078979 C9.05089916,17.6928259 8.74119328,18.2352586 8.56134454,18.8339963 C8.38111765,19.4339335 8.29126891,20.0188761 8.29126891,20.5900236 C8.29126891,21.1605713 8.38134454,21.7455888 8.56134454,22.3454511 C8.74096639,22.9445636 9.05052101,23.4866964 9.48970588,23.9715495 C9.92896639,24.4570023 10.450437,24.6997662 11.0553277,24.6997662 C11.6600672,24.6997662 12.181916,24.4565525 12.6207983,23.9715495 C13.0597563,23.4866214 13.3693109,22.9445636 13.5491597,22.3454511 C13.7291597,21.7455888 13.8192353,21.1605713 13.8192353,20.5900236 C13.8192353,20.0194009 13.7293866,19.4339335 13.5491597,18.8339963 C13.3692353,18.2354835 13.0599832,17.6932758 12.6207983,17.2078979 L12.6207983,17.2078979 Z" id="Shape"></path>
                        <path d="M26.4404118,17.2078979 C26.0014538,16.7224451 25.4796807,16.4797561 24.8750924,16.4797561 C24.2707311,16.4797561 23.7486555,16.7227449 23.3094706,17.2078979 C22.8705126,17.6928259 22.5610336,18.2352586 22.3814118,18.8339963 C22.2010336,19.4339335 22.110958,20.0188761 22.110958,20.5900236 C22.110958,21.1605713 22.2010336,21.7455888 22.3814118,22.3454511 C22.5610336,22.9445636 22.8705882,23.4866964 23.3094706,23.9715495 C23.7487311,24.4570023 24.2707311,24.6997662 24.8750924,24.6997662 C25.4796807,24.6997662 26.0015294,24.4565525 26.4404118,23.9715495 C26.8791429,23.4866214 27.1888487,22.9445636 27.369,22.3454511 C27.5489244,21.7455888 27.6389244,21.1605713 27.6389244,20.5900236 C27.6389244,20.0194009 27.5489244,19.4339335 27.369,18.8339963 C27.1889244,18.2354835 26.8791429,17.6932758 26.4404118,17.2078979 L26.4404118,17.2078979 Z" id="Shape"></path>
                    </g>
                </g>
            </g>
        </g>
    </g>
</svg>