<?xml version="1.0" encoding="UTF-8" standalone="no"?>
<svg width="64px" height="64px" viewBox="0 0 64 64" version="1.1" xmlns="http://www.w3.org/2000/svg" xmlns:xlink="http://www.w3.org/1999/xlink" xmlns:sketch="http://www.bohemiancoding.com/sketch/ns">
    <!-- Generator: Sketch 3.4.4 (17249) - http://www.bohemiancoding.com/sketch -->
    <title>SDLogo</title>
    <desc>Created with Sketch.</desc>
    <defs></defs>
    <g id="Page-1" stroke="none" stroke-width="1" fill="none" fill-rule="evenodd" sketch:type="MSPage">
        <g id="Artboard-1-Copy-2" sketch:type="MSArtboardGroup" transform="translate(-262.000000, -115.000000)" stroke-linecap="round" stroke="#000000" stroke-width="4">
            <g id="SDLogo" sketch:type="MSLayerGroup" transform="translate(264.000000, 117.000000)">
                <path d="M28.7449763,21.38606 C28.0267087,18.9857372 27.0159964,16.7117139 25.7542009,14.6053515 C23.7133035,11.1984054 21.0155321,8.23008731 17.8359089,5.87541949 C12.8503552,2.18337097 6.68015439,0 0,0 L0,30 L0,30 M0,37.5 L0,45 L0,60 C6.68015439,60 12.8503552,57.816629 17.8359089,54.1245805 C21.0155321,51.7699127 23.7133035,48.8015946 25.7542009,45.3946485 C27.0159964,43.2882861 28.0267087,41.0142628 28.7449763,38.61394 C29.5614108,35.8855605 30,32.9939992 30,30 M0.0901673929,30 L30.0800066,30" id="Oval-107" stroke-linejoin="round" sketch:type="MSShapeGroup" transform="translate(15.040003, 30.000000) scale(-1, -1) translate(-15.040003, -30.000000) "></path>
                <path d="M39.0481562,58.6114233 C42.2414186,57.6025228 45.2037654,56.0738127 47.8359089,54.1245805 C55.2158417,48.6593762 60,39.8883881 60,30 C60,20.1116119 55.2158417,11.3406238 47.8359089,5.87541949 C45.2037654,3.92618733 42.2414186,2.39747721 39.0481562,1.38857673 C36.1930474,0.486514723 33.1533395,0 30,0" id="Oval-107" sketch:type="MSShapeGroup"></path>
            </g>
        </g>
    </g>
</svg>