<?xml version="1.0" encoding="UTF-8" standalone="no"?>
<svg width="36px" height="30px" viewBox="0 0 36 30" version="1.1" xmlns="http://www.w3.org/2000/svg" xmlns:xlink="http://www.w3.org/1999/xlink">
    <!-- Generator: Sketch 3.8.3 (29802) - http://www.bohemiancoding.com/sketch -->
    <title>twitter-logo-silhouette</title>
    <desc>Created with Sketch.</desc>
    <defs></defs>
    <g id="Page-1" stroke="none" stroke-width="1" fill="none" fill-rule="evenodd">
        <g id="Desktop" transform="translate(-397.000000, -657.000000)" fill="#010002">
            <g id="twitter-logo-silhouette" transform="translate(397.000000, 657.000000)">
                <g id="Capa_1">
                    <path d="M36,3.48576471 C34.675,4.07288235 33.2532941,4.47105882 31.7595294,4.64882353 C33.2847647,3.73547059 34.4522941,2.28676471 35.0056471,0.565823529 C33.5749412,1.41164706 31.9957059,2.02582353 30.313,2.35876471 C28.9655294,0.921294118 27.0488824,0.0259411765 24.923,0.0259411765 C20.8445294,0.0259411765 17.5376471,3.33282353 17.5376471,7.40905882 C17.5376471,7.98717647 17.6028824,8.55182353 17.7288824,9.09176471 C11.5920588,8.78352941 6.15035294,5.84335294 2.50829412,1.37564706 C1.87164706,2.46447059 1.50947059,3.73317647 1.50947059,5.08747059 C1.50947059,7.64976471 2.81423529,9.91058824 4.79388235,11.2332941 C3.58358824,11.1928235 2.44529412,10.8598824 1.44876471,10.3064706 L1.44876471,10.3987059 C1.44876471,13.9755294 3.99529412,16.9607059 7.37188235,17.6401176 C6.75323529,17.8065882 6.10088235,17.8988235 5.426,17.8988235 C4.94911765,17.8988235 4.48794118,17.8515882 4.03576471,17.7615882 C4.97605882,20.6972941 7.70258824,22.8321176 10.933,22.8906471 C8.40670588,24.8702941 5.22129412,26.0468235 1.76147059,26.0468235 C1.16535294,26.0468235 0.578176471,26.0108235 5.88235294e-05,25.9455882 C3.26870588,28.0444706 7.14923529,29.2682353 11.3199412,29.2682353 C24.9051176,29.2682353 32.331,18.0158235 32.331,8.25717647 L32.3062353,7.30111765 C33.7571765,6.26623529 35.0124118,4.966 36,3.48576471 L36,3.48576471 Z" id="Shape"></path>
                </g>
            </g>
        </g>
    </g>
</svg>